<svg xmlns="http://www.w3.org/2000/svg" viewBox="0 0 600 300"><g><text x="50%" y="0" style="fill: rgb(54, 58, 61); dominant-baseline: text-before-edge; text-anchor: middle; font-weight: bold; font-size: 13px; font-family: sans-serif;">loss</text><svg viewBox="0 0 1024 1024" x="157.078125" y="25" height="11" width="11"><path d="M128 533.333h768c23.564 0 42.667-19.103 42.667-42.667v-85.333c0-23.564-19.103-42.667-42.667-42.667h-768c-23.564 0-42.667 19.103-42.667 42.667v85.333c0 23.564 19.103 42.667 42.667 42.667z" style="fill: rgb(71, 154, 95);"/></svg><text x="176.078125" y="23" style="fill: rgb(71, 154, 95); dominant-baseline: text-before-edge; font-size: 11px; font-family: sans-serif;"> 3_layers_noise_0.2</text><svg viewBox="0 0 1024 1024" x="307.15625" y="25" height="11" width="11"><path d="M128 533.333h768c23.564 0 42.667-19.103 42.667-42.667v-85.333c0-23.564-19.103-42.667-42.667-42.667h-768c-23.564 0-42.667 19.103-42.667 42.667v85.333c0 23.564 19.103 42.667 42.667 42.667z" style="fill: rgb(160, 199, 92);"/></svg><text x="326.15625" y="23" style="fill: rgb(160, 199, 92); dominant-baseline: text-before-edge; font-size: 11px; font-family: sans-serif;"> 7_layers_noise_0.2</text></g><g transform="translate(0, 36)"><svg class="rv-xy-plot__inner" width="600" height="264"><g transform="translate(40,5)" class="rv-xy-plot__grid-lines"><line y1="229" y2="229" x1="0" x2="540" class="rv-xy-plot__grid-lines__line" style="stroke-width: 0.5;"/><line y1="185.69348666524112" y2="185.69348666524112" x1="0" x2="540" class="rv-xy-plot__grid-lines__line" style="stroke-width: 0.5;"/><line y1="142.38697333048225" y2="142.38697333048225" x1="0" x2="540" class="rv-xy-plot__grid-lines__line" style="stroke-width: 0.5;"/><line y1="99.08045999572336" y2="99.08045999572336" x1="0" x2="540" class="rv-xy-plot__grid-lines__line" style="stroke-width: 0.5;"/><line y1="55.773946660964484" y2="55.773946660964484" x1="0" x2="540" class="rv-xy-plot__grid-lines__line" style="stroke-width: 0.5;"/><line y1="12.467433326205581" y2="12.467433326205581" x1="0" x2="540" class="rv-xy-plot__grid-lines__line" style="stroke-width: 0.5;"/></g><path d="M0,16.023764863235442L5.82995951417004,102.410018530946L11.65991902834008,111.2396586862188L18.218623481781375,117.9400077431916L24.048582995951417,123.19441037844639L29.87854251012146,127.01412485872456L36.43724696356275,127.41639451147744L42.26720647773279,132.37666755485864L48.097165991902834,137.60920905704995L54.65587044534413,132.74577797962732L60.48582995951417,140.191058178123L66.3157894736842,137.55733562632335L72.8744939271255,139.15500976588456L78.70445344129554,138.81961112206895L84.53441295546558,143.16443342661375L91.09311740890689,142.4371224732872L96.92307692307692,144.81209697277308L102.75303643724696,144.8327456150608L109.31174089068826,144.79999172702824L115.14170040485831,145.05612523582306L120.97165991902834,141.6764899543341L127.53036437246963,147.22105499230892L133.36032388663966,145.80406063203725L139.1902834008097,144.2843378017332L145.748987854251,146.37507522244383L151.57894736842104,149.69612930199153L157.40890688259108,150.9973189455571L163.96761133603238,147.41332628424533L169.79757085020245,148.47518083591737L175.6275303643725,147.43802177204526L182.18623481781378,148.82366379287342L188.0161943319838,149.50625526312734L193.84615384615384,147.8097205243161L200.40485829959513,147.6285623027205L206.23481781376518,153.22203483244743L212.06477732793522,147.47272320763153L218.6234817813765,146.7557645560052L224.45344129554655,151.0371572079683L230.28340080971662,151.34494988196806L236.8421052631579,150.5470661677205L242.67206477732796,153.26399482767764L248.50202429149797,146.59507297704243L255.06072874493927,151.81778120425022L260.8906882591093,149.66036687395726L266.7206477732793,153.641677889931L273.2793522267207,151.74613459494987L279.1093117408907,150.8107062800103L284.9392712550607,152.39651137005467L291.497975708502,150.8929991128912L297.32793522267207,150.87506660118737L303.1578947368421,148.39471455358967L309.7165991902834,153.69712930279294L315.54655870445345,151.55399539140564L321.37651821862346,156.71926382171017L327.93522267206475,150.1411066106068L333.76518218623477,151.16597162299794L339.5951417004049,152.63160602123517L346.1538461538462,152.7639553132187L351.9838056680162,150.52020180868675L357.8137651821863,152.9848620577835L364.37246963562757,154.3264369710333L370.2024291497976,157.8287236349165L376.0323886639676,149.83071426563617L382.59109311740895,155.54874388051508L388.42105263157896,156.4533325808007L394.251012145749,153.38592577376482L400.80971659919027,154.38151757850412L406.63967611336034,155.04180299964068L412.46963562753035,156.7513217249128L419.02834008097165,157.6355710814932L424.8582995951417,156.24597523159696L430.68825910931173,153.94389890413527L437.246963562753,155.4443701033531L443.07692307692304,155.94383236128886L448.9068825910931,155.64002956338032L455.4655870445344,157.027149512154L461.2955465587044,152.9794691206408L467.1255060728745,152.27666459730094L473.6842105263158,156.49696788033353L479.51417004048585,156.13357405968378L485.3441295546559,154.35452970169908L491.9028340080972,156.04585501548507L497.73279352226723,155.30394098458484L503.56275303643724,154.25949941374574L510.12145748987854,158.09532640917868L515.9514170040486,156.5566579693688L521.7813765182186,154.9255611812703L528.34008097166,154.99888410318158L534.17004048583,152.96273800832105L540,155.18438939409685" class="rv-xy-plot__series rv-xy-plot__series--line" transform="translate(40,5)" style="opacity: 1; stroke-width: 1.5; stroke: rgba(160, 199, 92, 0.1);"/><path d="M0,16.023764863235442L5.82995951417004,66.62766065917775L11.65991902834008,86.84054678109771L18.218623481781375,98.98564174716572L24.048582995951417,107.59883834572521L29.87854251012146,114.09781635827127L36.43724696356275,118.37696440914127L42.26720647773279,122.7507437337087L48.097165991902834,127.30391093147888L54.65587044534413,128.94921256356875L60.48582995951417,132.31627518643535L66.3157894736842,133.87571245600705L72.8744939271255,135.43925773614336L78.70445344129554,136.43713624593175L84.53441295546558,138.4184613493492L91.09311740890689,139.60011577887522L96.92307692307692,141.13089795550118L102.75303643724696,142.21726584434953L109.31174089068826,142.97477491292292L115.14170040485831,143.5849842159981L120.97165991902834,143.02561292373542L127.53036437246963,144.25502975673328L133.36032388663966,144.70888709779734L139.1902834008097,144.58450912221144L145.748987854251,145.10904434315336L151.57894736842104,146.45273444638903L157.40890688259108,147.78392733275803L163.96761133603238,147.67537417320446L169.79757085020245,147.90964223170312L175.6275303643725,147.7715035815586L182.18623481781378,148.07968082277222L188.0161943319838,148.49752117822266L193.84615384615384,148.29606685718778L200.40485829959513,148.10055780804154L206.23481781376518,149.60061179128508L212.06477732793522,148.9773652772456L218.6234817813765,148.32667173590357L224.45344129554655,149.1205560645779L230.28340080971662,149.77206680835405L236.8421052631579,149.99905908177394L242.67206477732796,150.95533726647656L248.50202429149797,149.6782448149017L255.06072874493927,150.30490072603908L260.8906882591093,150.11612108646005L266.7206477732793,151.14873294082366L273.2793522267207,151.3237078550838L279.1093117408907,151.17345315983863L284.9392712550607,151.53167863717692L291.497975708502,151.34461372763445L297.32793522267207,151.20708655428612L303.1578947368421,150.38336184914263L309.7165991902834,151.35394187950428L315.54655870445345,151.41253619715738L321.37651821862346,152.96684074405937L327.93522267206475,152.13920237384113L333.76518218623477,151.85414968551655L339.5951417004049,152.0818613747719L346.1538461538462,152.28164206430884L351.9838056680162,151.76572815741264L357.8137651821863,152.1228042099894L364.37246963562757,152.76823330287937L370.2024291497976,154.25041660569426L376.0323886639676,152.95591576069108L382.59109311740895,153.71533753471317L388.42105263157896,154.51727771698904L394.251012145749,154.18591240468868L400.80971659919027,154.24320383366876L406.63967611336034,154.47710811394563L412.46963562753035,155.14320985875858L419.02834008097165,155.87320555975242L424.8582995951417,155.98238726881723L430.68825910931173,155.3853278501631L437.246963562753,155.40262092574608L443.07692307692304,155.561138085162L448.9068825910931,155.58424486415444L455.4655870445344,156.00686185094946L461.2955465587044,155.12015904955462L467.1255060728745,154.28731880675434L473.6842105263158,154.93451003636395L479.51417004048585,155.2857077577178L485.3441295546559,155.01297201960182L491.9028340080972,155.3154964449239L497.73279352226723,155.31211192895032L503.56275303643724,155.00380886120865L510.12145748987854,155.90929338685203L515.9514170040486,156.0989020831712L521.7813765182186,155.75523848964795L528.34008097166,155.53370741883214L534.17004048583,154.78068791271656L540,154.8989293390378" class="rv-xy-plot__series rv-xy-plot__series--line" transform="translate(40,5)" style="opacity: 1; stroke-width: 1.5; stroke: rgb(160, 199, 92);"/><path d="M0,0L5.82995951417004,104.2777620088334L11.65991902834008,112.70896105811049L18.218623481781375,122.0359135058666L24.048582995951417,123.94257466065315L29.87854251012146,129.98674690088725L36.43724696356275,129.39230224964422L42.26720647773279,129.29551523649008L48.097165991902834,137.19046969591375L54.65587044534413,136.7475495883839L60.48582995951417,136.66212973927153L66.3157894736842,136.7200051253766L72.8744939271255,141.45878055550725L78.70445344129554,141.356446838189L84.53441295546558,137.3918797904663L91.09311740890689,142.79947571973267L96.92307692307692,140.38694828868236L102.75303643724696,142.81647831907233L109.31174089068826,145.36788812390137L115.14170040485831,146.12341204866294L120.97165991902834,142.82866624610082L127.53036437246963,144.68298107355056L133.36032388663966,147.94357597687863L139.1902834008097,147.25625957375556L145.748987854251,147.42768207419928L151.57894736842104,146.40735419724945L157.40890688259108,144.53562008703963L163.96761133603238,148.83020418490406L169.79757085020245,148.58714440201214L175.6275303643725,145.25799864805666L182.18623481781378,148.17291117083585L188.0161943319838,149.03612998834572L193.84615384615384,149.03147664536854L200.40485829959513,149.56176994733744L206.23481781376518,147.79690366496217L212.06477732793522,146.74033592598028L218.6234817813765,148.68274917364067L224.45344129554655,151.08973620245402L230.28340080971662,147.42334407965464L236.8421052631579,146.7087955370318L242.67206477732796,147.8002126808485L248.50202429149797,150.4596715467293L255.06072874493927,150.82651050489088L260.8906882591093,151.09253198939658L266.7206477732793,149.16848659056467L273.2793522267207,150.77856443513855L279.1093117408907,150.88566644258444L284.9392712550607,150.37186604009065L291.497975708502,149.66577317118538L297.32793522267207,150.68269851165059L303.1578947368421,150.74894184864783L309.7165991902834,151.33707020438825L315.54655870445345,150.82760678813074L321.37651821862346,153.592531429103L327.93522267206475,150.24791343578696L333.76518218623477,150.81076148489174L339.5951417004049,151.29153676441024L346.1538461538462,150.24653331375015L351.9838056680162,151.68224868284548L357.8137651821863,151.89024832446015L364.37246963562757,150.4030991470733L370.2024291497976,152.19153993045438L376.0323886639676,152.72035379201517L382.59109311740895,151.01422525145054L388.42105263157896,150.78844913384728L394.251012145749,154.79047962576948L400.80971659919027,156.987261086403L406.63967611336034,149.46118413252205L412.46963562753035,154.46767021570065L419.02834008097165,154.28620496421632L424.8582995951417,155.7189559067997L430.68825910931173,152.70504061329487L437.246963562753,151.90796127702347L443.07692307692304,151.7609105974034L448.9068825910931,153.4843046537067L455.4655870445344,155.81209208754117L461.2955465587044,152.7455113371107L467.1255060728745,152.5012093183471L473.6842105263158,152.49278616257342L479.51417004048585,154.2607393809237L485.3441295546559,153.6090800376137L491.9028340080972,152.21070711571736L497.73279352226723,155.07167615075323L503.56275303643724,152.14339799680747L510.12145748987854,155.6410877829804L515.9514170040486,153.72894042253L521.7813765182186,153.10192741198847L528.34008097166,149.99125686704213L534.17004048583,154.02193415506147L540,154.75951397257336" class="rv-xy-plot__series rv-xy-plot__series--line" transform="translate(40,5)" style="opacity: 1; stroke-width: 1.5; stroke: rgba(71, 154, 95, 0.1);"/><path d="M0,0L5.82995951417004,61.08449873086073L11.65991902834008,84.47460507609894L18.218623481781375,99.14320844788499L24.048582995951417,107.96653275502247L29.87854251012146,115.33747149804405L36.43724696356275,119.85317136661745L42.26720647773279,122.8031430884206L48.097165991902834,127.21193646965476L54.65587044534413,130.0949469674141L60.48582995951417,132.0618940690561L66.3157894736842,133.4478792280415L72.8744939271255,135.82043114641175L78.70445344129554,137.45466001481253L84.53441295546558,137.43616996878742L91.09311740890689,139.01320615125022L96.92307692307692,139.41668035827985L102.75303643724696,140.41440681080937L109.31174089068826,141.86725437811847L115.14170040485831,143.11507267057303L120.97165991902834,143.03112820451543L127.53036437246963,143.51518106226783L133.36032388663966,144.81267588510823L139.1902834008097,145.52855975345125L145.748987854251,146.08489584513754L151.57894736842104,146.17935324026465L157.40890688259108,145.69787338637204L163.96761133603238,146.6153678357597L169.79757085020245,147.19291274692893L175.6275303643725,146.62617223283476L182.18623481781378,147.0792113552657L188.0161943319838,147.6523882986506L193.84615384615384,148.05631828178915L200.40485829959513,148.49725822998448L206.23481781376518,148.29212802048863L212.06477732793522,147.8376169051765L218.6234817813765,148.0851510833084L224.45344129554655,148.96517536856706L230.28340080971662,148.51358283042774L236.8421052631579,147.98497236666915L242.67206477732796,147.93085747108984L248.50202429149797,148.671530318665L255.06072874493927,149.30270961470563L260.8906882591093,149.82693657611864L266.7206477732793,149.63408100790906L273.2793522267207,149.96929248274927L279.1093117408907,150.2376922241066L284.9392712550607,150.27699082729305L291.497975708502,150.0979693130549L297.32793522267207,150.26923253526985L303.1578947368421,150.4097361431208L309.7165991902834,150.68134600528805L315.54655870445345,150.72418479721242L321.37651821862346,151.56430408115892L327.93522267206475,151.17874218578876L333.76518218623477,151.07096313344027L339.5951417004049,151.13556765437062L346.1538461538462,150.87517552422557L351.9838056680162,151.11156177978305L357.8137651821863,151.33963378851266L364.37246963562757,151.06532914267052L370.2024291497976,151.3951886455206L376.0323886639676,151.7833205308646L382.59109311740895,151.5580577388503L388.42105263157896,151.33264459726732L394.251012145749,152.34542102900915L400.80971659919027,153.70498450474835L406.63967611336034,152.4620041536529L412.46963562753035,153.04945014245516L419.02834008097165,153.41168724309438L424.8582995951417,154.08747058868835L430.68825910931173,153.68256622340525L437.246963562753,153.1627964685319L443.07692307692304,152.75219360332497L448.9068825910931,152.96662396540125L455.4655870445344,153.80004228272895L461.2955465587044,153.49117731972763L467.1255060728745,153.20122240528042L473.6842105263158,152.99372623382962L479.51417004048585,153.3648257927613L485.3441295546559,153.43636620474498L491.9028340080972,153.07737896899155L497.73279352226723,153.66149508982855L503.56275303643724,153.21685474578217L510.12145748987854,153.92689616320118L515.9514170040486,153.8689162691334L521.7813765182186,153.64427043397012L528.34008097166,152.5743275319833L534.17004048583,152.99832169539238L540,153.5141629704053" class="rv-xy-plot__series rv-xy-plot__series--line" transform="translate(40,5)" style="opacity: 1; stroke-width: 1.5; stroke: rgb(71, 154, 95);"/><g class="rv-xy-plot__series rv-xy-plot__series--mark" transform="translate(40,5)"><circle r="2" cx="540" cy="153.5141629704053" style="opacity: 1; stroke: rgb(71, 154, 95); fill: rgb(71, 154, 95); stroke-width: 1;"/></g><g class="rv-xy-plot__series rv-xy-plot__series--mark" transform="translate(40,5)"><circle r="2" cx="540" cy="154.75951397257336" style="opacity: 1; stroke: rgba(71, 154, 95, 0.1); fill: rgba(71, 154, 95, 0.1); stroke-width: 1;"/></g><g class="rv-xy-plot__series rv-xy-plot__series--mark" transform="translate(40,5)"><circle r="2" cx="540" cy="154.8989293390378" style="opacity: 1; stroke: rgb(160, 199, 92); fill: rgb(160, 199, 92); stroke-width: 1;"/></g><g class="rv-xy-plot__series rv-xy-plot__series--mark" transform="translate(40,5)"><circle r="2" cx="540" cy="155.18438939409685" style="opacity: 1; stroke: rgba(160, 199, 92, 0.1); fill: rgba(160, 199, 92, 0.1); stroke-width: 1;"/></g><defs class="rv-gradient-defs"><linearGradient id="leftFadeGradient" x1="0" x2="1" y1="0" y2="0"><stop offset="0%" stop-color="white" stop-opacity="1"/><stop offset="60%" stop-color="white" stop-opacity="1"/><stop offset="100%" stop-color="white" stop-opacity="0"/></linearGradient><linearGradient id="rightFadeGradient" x1="1" x2="0" y1="0" y2="0"><stop offset="0%" stop-color="white" stop-opacity="1"/><stop offset="100%" stop-color="white" stop-opacity="0"/></linearGradient><linearGradient id="bottomFadeGradient" x1="0" x2="0" y1="1" y2="0"><stop offset="0%" stop-color="white" stop-opacity="1"/><stop offset="40%" stop-color="white" stop-opacity="1"/><stop offset="100%" stop-color="white" stop-opacity="0"/></linearGradient><linearGradient id="topFadeGradient" x1="0" x2="0" y1="0" y2="1"><stop offset="0%" stop-color="white" stop-opacity="1"/><stop offset="100%" stop-color="white" stop-opacity="0"/></linearGradient></defs><g class="rv-xy-plot__borders plot-border"><rect class="rv-xy-plot__borders-bottom plot-border-bottom" x="0" y="234" width="600" height="30" style="fill: url(&quot;#bottomFadeGradient&quot;); opacity: 1;"/><rect class="rv-xy-plot__borders-left plot-border-left" x="0" y="0" width="40" height="264" style="fill: url(&quot;#leftFadeGradient&quot;); opacity: 1;"/><rect class="rv-xy-plot__borders-right plot-border-right" x="580" y="0" width="20" height="264" style="fill: url(&quot;#rightFadeGradient&quot;); opacity: 1;"/><rect class="rv-xy-plot__borders-top plot-border-top" x="0" y="0" width="600" height="5" style="fill: url(&quot;#topFadeGradient&quot;); opacity: 1;"/></g><g transform="translate(40,234)" class="rv-xy-plot__axis rv-xy-plot__axis--horizontal"><line x1="0" x2="540" y1="0" y2="0" class="rv-xy-plot__axis__line"/><g transform="translate(0, 0)" class="rv-xy-plot__axis__ticks"/></g><g transform="translate(40,234)" class="rv-xy-plot__axis rv-xy-plot__axis--horizontal" style="font-family: &quot;Source Sans Pro&quot;; fill: rgb(107, 107, 118); font-size: 11px;"><line x1="0" x2="540" y1="0" y2="0" class="rv-xy-plot__axis__line" style="font-family: &quot;Source Sans Pro&quot;; fill: rgb(107, 107, 118); font-size: 11px; stroke-width: 0;"/><g transform="translate(0, 0)" class="rv-xy-plot__axis__ticks"><g transform="translate(67.04453441295547, 0)" class="rv-xy-plot__axis__tick" style="font-family: &quot;Source Sans Pro&quot;; fill: rgb(107, 107, 118); font-size: 11px;"><line x1="0" x2="0" y1="-6" y2="6" class="rv-xy-plot__axis__tick__line" style="font-family: &quot;Source Sans Pro&quot;; fill: rgb(107, 107, 118); font-size: 11px; stroke-width: 0;"/><text text-anchor="middle" dy="0.72em" transform="translate(0, 14)" class="rv-xy-plot__axis__tick__text" style="font-family: sans-serif; fill: rgb(107, 107, 118); font-size: 11px;">200</text></g><g transform="translate(139.91902834008098, 0)" class="rv-xy-plot__axis__tick" style="font-family: &quot;Source Sans Pro&quot;; fill: rgb(107, 107, 118); font-size: 11px;"><line x1="0" x2="0" y1="-6" y2="6" class="rv-xy-plot__axis__tick__line" style="font-family: &quot;Source Sans Pro&quot;; fill: rgb(107, 107, 118); font-size: 11px; stroke-width: 0;"/><text text-anchor="middle" dy="0.72em" transform="translate(0, 14)" class="rv-xy-plot__axis__tick__text" style="font-family: sans-serif; fill: rgb(107, 107, 118); font-size: 11px;">400</text></g><g transform="translate(212.79352226720647, 0)" class="rv-xy-plot__axis__tick" style="font-family: &quot;Source Sans Pro&quot;; fill: rgb(107, 107, 118); font-size: 11px;"><line x1="0" x2="0" y1="-6" y2="6" class="rv-xy-plot__axis__tick__line" style="font-family: &quot;Source Sans Pro&quot;; fill: rgb(107, 107, 118); font-size: 11px; stroke-width: 0;"/><text text-anchor="middle" dy="0.72em" transform="translate(0, 14)" class="rv-xy-plot__axis__tick__text" style="font-family: sans-serif; fill: rgb(107, 107, 118); font-size: 11px;">600</text></g><g transform="translate(285.668016194332, 0)" class="rv-xy-plot__axis__tick" style="font-family: &quot;Source Sans Pro&quot;; fill: rgb(107, 107, 118); font-size: 11px;"><line x1="0" x2="0" y1="-6" y2="6" class="rv-xy-plot__axis__tick__line" style="font-family: &quot;Source Sans Pro&quot;; fill: rgb(107, 107, 118); font-size: 11px; stroke-width: 0;"/><text text-anchor="middle" dy="0.72em" transform="translate(0, 14)" class="rv-xy-plot__axis__tick__text" style="font-family: sans-serif; fill: rgb(107, 107, 118); font-size: 11px;">800</text></g><g transform="translate(358.5425101214575, 0)" class="rv-xy-plot__axis__tick" style="font-family: &quot;Source Sans Pro&quot;; fill: rgb(107, 107, 118); font-size: 11px;"><line x1="0" x2="0" y1="-6" y2="6" class="rv-xy-plot__axis__tick__line" style="font-family: &quot;Source Sans Pro&quot;; fill: rgb(107, 107, 118); font-size: 11px; stroke-width: 0;"/><text text-anchor="middle" dy="0.72em" transform="translate(0, 14)" class="rv-xy-plot__axis__tick__text" style="font-family: sans-serif; fill: rgb(107, 107, 118); font-size: 11px;">1k</text></g><g transform="translate(431.417004048583, 0)" class="rv-xy-plot__axis__tick" style="font-family: &quot;Source Sans Pro&quot;; fill: rgb(107, 107, 118); font-size: 11px;"><line x1="0" x2="0" y1="-6" y2="6" class="rv-xy-plot__axis__tick__line" style="font-family: &quot;Source Sans Pro&quot;; fill: rgb(107, 107, 118); font-size: 11px; stroke-width: 0;"/><text text-anchor="middle" dy="0.72em" transform="translate(0, 14)" class="rv-xy-plot__axis__tick__text" style="font-family: sans-serif; fill: rgb(107, 107, 118); font-size: 11px;">1.2k</text></g><g transform="translate(504.2914979757085, 0)" class="rv-xy-plot__axis__tick" style="font-family: &quot;Source Sans Pro&quot;; fill: rgb(107, 107, 118); font-size: 11px;"><line x1="0" x2="0" y1="-6" y2="6" class="rv-xy-plot__axis__tick__line" style="font-family: &quot;Source Sans Pro&quot;; fill: rgb(107, 107, 118); font-size: 11px; stroke-width: 0;"/><text text-anchor="middle" dy="0.72em" transform="translate(0, 14)" class="rv-xy-plot__axis__tick__text" style="font-family: sans-serif; fill: rgb(107, 107, 118); font-size: 11px;">1.4k</text></g></g><g transform="translate(0, 0)" class="rv-xy-plot__axis__title"><g transform="translate(534, -6) rotate(0)" style="text-anchor: end; font-family: &quot;Source Sans Pro&quot;; fill: rgb(107, 107, 118); font-size: 11px;"><text style="font-family: sans-serif; fill: rgb(107, 107, 118); font-size: 11px;">Step</text></g></g></g><g transform="translate(40,234)" class="rv-xy-plot__axis rv-xy-plot__axis--horizontal"><line x1="0" x2="0" y1="0" y2="0" class="rv-xy-plot__axis__line"/><g transform="translate(0, 0)" class="rv-xy-plot__axis__ticks"><g transform="translate(67.04453441295547, 0)" class="rv-xy-plot__axis__tick"><line x1="0" x2="0" y1="-6" y2="6" class="rv-xy-plot__axis__tick__line"/><text text-anchor="middle" dy="0.72em" transform="translate(0, 14)" class="rv-xy-plot__axis__tick__text" style="font-family: sans-serif;"/></g><g transform="translate(139.91902834008098, 0)" class="rv-xy-plot__axis__tick"><line x1="0" x2="0" y1="-6" y2="6" class="rv-xy-plot__axis__tick__line"/><text text-anchor="middle" dy="0.72em" transform="translate(0, 14)" class="rv-xy-plot__axis__tick__text" style="font-family: sans-serif;"/></g><g transform="translate(212.79352226720647, 0)" class="rv-xy-plot__axis__tick"><line x1="0" x2="0" y1="-6" y2="6" class="rv-xy-plot__axis__tick__line"/><text text-anchor="middle" dy="0.72em" transform="translate(0, 14)" class="rv-xy-plot__axis__tick__text" style="font-family: sans-serif;"/></g><g transform="translate(285.668016194332, 0)" class="rv-xy-plot__axis__tick"><line x1="0" x2="0" y1="-6" y2="6" class="rv-xy-plot__axis__tick__line"/><text text-anchor="middle" dy="0.72em" transform="translate(0, 14)" class="rv-xy-plot__axis__tick__text" style="font-family: sans-serif;"/></g><g transform="translate(358.5425101214575, 0)" class="rv-xy-plot__axis__tick"><line x1="0" x2="0" y1="-6" y2="6" class="rv-xy-plot__axis__tick__line"/><text text-anchor="middle" dy="0.72em" transform="translate(0, 14)" class="rv-xy-plot__axis__tick__text" style="font-family: sans-serif;"/></g><g transform="translate(431.417004048583, 0)" class="rv-xy-plot__axis__tick"><line x1="0" x2="0" y1="-6" y2="6" class="rv-xy-plot__axis__tick__line"/><text text-anchor="middle" dy="0.72em" transform="translate(0, 14)" class="rv-xy-plot__axis__tick__text" style="font-family: sans-serif;"/></g><g transform="translate(504.2914979757085, 0)" class="rv-xy-plot__axis__tick"><line x1="0" x2="0" y1="-6" y2="6" class="rv-xy-plot__axis__tick__line"/><text text-anchor="middle" dy="0.72em" transform="translate(0, 14)" class="rv-xy-plot__axis__tick__text" style="font-family: sans-serif;"/></g></g></g><g transform="translate(0,5)" class="rv-xy-plot__axis rv-xy-plot__axis--vertical" style="font-family: &quot;Source Sans Pro&quot;; fill: rgb(107, 107, 118); font-size: 11px;"><line x1="40" x2="40" y1="0" y2="229" class="rv-xy-plot__axis__line" style="font-family: &quot;Source Sans Pro&quot;; fill: rgb(107, 107, 118); font-size: 11px; stroke: none;"/><g transform="translate(40, 0)" class="rv-xy-plot__axis__ticks"><g transform="translate(0, 229)" class="rv-xy-plot__axis__tick" style="font-family: &quot;Source Sans Pro&quot;; fill: rgb(107, 107, 118); font-size: 11px;"><line y1="0" y2="0" x1="6" x2="-6" class="rv-xy-plot__axis__tick__line" style="font-family: &quot;Source Sans Pro&quot;; fill: rgb(107, 107, 118); font-size: 11px; stroke: none;"/><text text-anchor="end" dy="0.32em" transform="translate(-14, 0)" class="rv-xy-plot__axis__tick__text" style="font-family: sans-serif; fill: rgb(107, 107, 118); font-size: 11px;">0</text></g><g transform="translate(0, 185.69348666524112)" class="rv-xy-plot__axis__tick" style="font-family: &quot;Source Sans Pro&quot;; fill: rgb(107, 107, 118); font-size: 11px;"><line y1="0" y2="0" x1="6" x2="-6" class="rv-xy-plot__axis__tick__line" style="font-family: &quot;Source Sans Pro&quot;; fill: rgb(107, 107, 118); font-size: 11px; stroke: none;"/><text text-anchor="end" dy="0.32em" transform="translate(-14, 0)" class="rv-xy-plot__axis__tick__text" style="font-family: sans-serif; fill: rgb(107, 107, 118); font-size: 11px;">0.02</text></g><g transform="translate(0, 142.38697333048225)" class="rv-xy-plot__axis__tick" style="font-family: &quot;Source Sans Pro&quot;; fill: rgb(107, 107, 118); font-size: 11px;"><line y1="0" y2="0" x1="6" x2="-6" class="rv-xy-plot__axis__tick__line" style="font-family: &quot;Source Sans Pro&quot;; fill: rgb(107, 107, 118); font-size: 11px; stroke: none;"/><text text-anchor="end" dy="0.32em" transform="translate(-14, 0)" class="rv-xy-plot__axis__tick__text" style="font-family: sans-serif; fill: rgb(107, 107, 118); font-size: 11px;">0.04</text></g><g transform="translate(0, 99.08045999572336)" class="rv-xy-plot__axis__tick" style="font-family: &quot;Source Sans Pro&quot;; fill: rgb(107, 107, 118); font-size: 11px;"><line y1="0" y2="0" x1="6" x2="-6" class="rv-xy-plot__axis__tick__line" style="font-family: &quot;Source Sans Pro&quot;; fill: rgb(107, 107, 118); font-size: 11px; stroke: none;"/><text text-anchor="end" dy="0.32em" transform="translate(-14, 0)" class="rv-xy-plot__axis__tick__text" style="font-family: sans-serif; fill: rgb(107, 107, 118); font-size: 11px;">0.06</text></g><g transform="translate(0, 55.773946660964484)" class="rv-xy-plot__axis__tick" style="font-family: &quot;Source Sans Pro&quot;; fill: rgb(107, 107, 118); font-size: 11px;"><line y1="0" y2="0" x1="6" x2="-6" class="rv-xy-plot__axis__tick__line" style="font-family: &quot;Source Sans Pro&quot;; fill: rgb(107, 107, 118); font-size: 11px; stroke: none;"/><text text-anchor="end" dy="0.32em" transform="translate(-14, 0)" class="rv-xy-plot__axis__tick__text" style="font-family: sans-serif; fill: rgb(107, 107, 118); font-size: 11px;">0.08</text></g><g transform="translate(0, 12.467433326205581)" class="rv-xy-plot__axis__tick" style="font-family: &quot;Source Sans Pro&quot;; fill: rgb(107, 107, 118); font-size: 11px;"><line y1="0" y2="0" x1="6" x2="-6" class="rv-xy-plot__axis__tick__line" style="font-family: &quot;Source Sans Pro&quot;; fill: rgb(107, 107, 118); font-size: 11px; stroke: none;"/><text text-anchor="end" dy="0.32em" transform="translate(-14, 0)" class="rv-xy-plot__axis__tick__text" style="font-family: sans-serif; fill: rgb(107, 107, 118); font-size: 11px;">0.1</text></g></g><g transform="translate(40, 0)" class="rv-xy-plot__axis__title"><g transform="translate(16, 6) rotate(-90)" style="text-anchor: end; font-family: &quot;Source Sans Pro&quot;; fill: rgb(107, 107, 118); font-size: 11px;"><text style="font-family: sans-serif; fill: rgb(107, 107, 118); font-size: 11px;">loss</text></g></g></g></svg></g><style xmlns="http://www.w3.org/1999/xhtml">/*&lt;![CDATA[*/<br />text { font-size: 10px; fill: black }<br />.react-vis-magic-css-import-rule{display:inherit}.rv-treemap{font-size:12px;position:relative}.rv-treemap__leaf{overflow:hidden;position:absolute}.rv-treemap__leaf--circle{align-items:center;border-radius:100%;display:flex;justify-content:center}.rv-treemap__leaf__content{overflow:hidden;padding:10px;text-overflow:ellipsis}.rv-xy-plot{color:#c3c3c3;position:relative}.rv-xy-plot canvas{pointer-events:none}.rv-xy-plot .rv-xy-canvas{pointer-events:none;position:absolute}.rv-xy-plot__inner{display:block}.rv-xy-plot__axis__line{fill:none;stroke-width:2px;stroke:#e6e6e9}.rv-xy-plot__axis__tick__line{stroke:#e6e6e9}.rv-xy-plot__axis__tick__text{fill:#6b6b76;font-size:11px}.rv-xy-plot__axis__title text{fill:#6b6b76;font-size:11px}.rv-xy-plot__grid-lines__line{stroke:#e6e6e9}.rv-xy-plot__circular-grid-lines__line{fill-opacity:0;stroke:#e6e6e9}.rv-xy-plot__series,.rv-xy-plot__series path{pointer-events:all}.rv-xy-plot__series--line{fill:none;stroke:#000;stroke-width:2px}.rv-crosshair{position:absolute;font-size:11px;pointer-events:none}.rv-crosshair__line{background:#47d3d9;width:1px}.rv-crosshair__inner{position:absolute;text-align:left;top:0}.rv-crosshair__inner__content{border-radius:4px;background:#3a3a48;color:#fff;font-size:12px;padding:7px 10px;box-shadow:0 2px 4px rgba(0,0,0,0.5)}.rv-crosshair__inner--left{right:4px}.rv-crosshair__inner--right{left:4px}.rv-crosshair__title{font-weight:bold;white-space:nowrap}.rv-crosshair__item{white-space:nowrap}.rv-hint{position:absolute;pointer-events:none}.rv-hint__content{border-radius:4px;padding:7px 10px;font-size:12px;background:#3a3a48;box-shadow:0 2px 4px rgba(0,0,0,0.5);color:#fff;text-align:left;white-space:nowrap}.rv-discrete-color-legend{box-sizing:border-box;overflow-y:auto;font-size:12px}.rv-discrete-color-legend.horizontal{white-space:nowrap}.rv-discrete-color-legend-item{color:#3a3a48;border-radius:1px;padding:9px 10px}.rv-discrete-color-legend-item.horizontal{display:inline-block}.rv-discrete-color-legend-item.horizontal .rv-discrete-color-legend-item__title{margin-left:0;display:block}.rv-discrete-color-legend-item__color{display:inline-block;vertical-align:middle;overflow:visible}.rv-discrete-color-legend-item__color__path{stroke:#dcdcdc;stroke-width:2px}.rv-discrete-color-legend-item__title{margin-left:10px}.rv-discrete-color-legend-item.disabled{color:#b8b8b8}.rv-discrete-color-legend-item.clickable{cursor:pointer}.rv-discrete-color-legend-item.clickable:hover{background:#f9f9f9}.rv-search-wrapper{display:flex;flex-direction:column}.rv-search-wrapper__form{flex:0}.rv-search-wrapper__form__input{width:100%;color:#a6a6a5;border:1px solid #e5e5e4;padding:7px 10px;font-size:12px;box-sizing:border-box;border-radius:2px;margin:0 0 9px;outline:0}.rv-search-wrapper__contents{flex:1;overflow:auto}.rv-continuous-color-legend{font-size:12px}.rv-continuous-color-legend .rv-gradient{height:4px;border-radius:2px;margin-bottom:5px}.rv-continuous-size-legend{font-size:12px}.rv-continuous-size-legend .rv-bubbles{text-align:justify;overflow:hidden;margin-bottom:5px;width:100%}.rv-continuous-size-legend .rv-bubble{background:#d8d9dc;display:inline-block;vertical-align:bottom}.rv-continuous-size-legend .rv-spacer{display:inline-block;font-size:0;line-height:0;width:100%}.rv-legend-titles{height:16px;position:relative}.rv-legend-titles__left,.rv-legend-titles__right,.rv-legend-titles__center{position:absolute;white-space:nowrap;overflow:hidden}.rv-legend-titles__center{display:block;text-align:center;width:100%}.rv-legend-titles__right{right:0}.rv-radial-chart .rv-xy-plot__series--label{pointer-events:none}<br /><br />/*]]&gt;*/</style></svg>