<svg xmlns="http://www.w3.org/2000/svg" viewBox="0 0 600 300"><g><text x="50%" y="0" style="fill: rgb(54, 58, 61); dominant-baseline: text-before-edge; text-anchor: middle; font-weight: bold; font-size: 13px; font-family: sans-serif;">PSNR</text><svg viewBox="0 0 1024 1024" x="157.078125" y="25" height="11" width="11"><path d="M128 533.333h768c23.564 0 42.667-19.103 42.667-42.667v-85.333c0-23.564-19.103-42.667-42.667-42.667h-768c-23.564 0-42.667 19.103-42.667 42.667v85.333c0 23.564 19.103 42.667 42.667 42.667z" style="fill: rgb(71, 154, 95);"/></svg><text x="176.078125" y="23" style="fill: rgb(71, 154, 95); dominant-baseline: text-before-edge; font-size: 11px; font-family: sans-serif;"> 3_layers_noise_0.2</text><svg viewBox="0 0 1024 1024" x="307.15625" y="25" height="11" width="11"><path d="M128 533.333h768c23.564 0 42.667-19.103 42.667-42.667v-85.333c0-23.564-19.103-42.667-42.667-42.667h-768c-23.564 0-42.667 19.103-42.667 42.667v85.333c0 23.564 19.103 42.667 42.667 42.667z" style="fill: rgb(160, 199, 92);"/></svg><text x="326.15625" y="23" style="fill: rgb(160, 199, 92); dominant-baseline: text-before-edge; font-size: 11px; font-family: sans-serif;"> 7_layers_noise_0.2</text></g><g transform="translate(0, 36)"><svg class="rv-xy-plot__inner" width="600" height="264"><g transform="translate(32,5)" class="rv-xy-plot__grid-lines"><line y1="215.44177983334907" y2="215.44177983334907" x1="0" x2="548" class="rv-xy-plot__grid-lines__line" style="stroke-width: 0.5;"/><line y1="155.94421438201167" y2="155.94421438201167" x1="0" x2="548" class="rv-xy-plot__grid-lines__line" style="stroke-width: 0.5;"/><line y1="96.44664893067429" y2="96.44664893067429" x1="0" x2="548" class="rv-xy-plot__grid-lines__line" style="stroke-width: 0.5;"/><line y1="36.94908347933686" y2="36.94908347933686" x1="0" x2="548" class="rv-xy-plot__grid-lines__line" style="stroke-width: 0.5;"/></g><path d="M0,220.9615735031509L5.916329284750337,160.56380732636728L11.832658569500675,188.32692825644887L18.488529014844804,135.16492614587074L24.40485829959514,146.80296397720338L30.32118758434548,115.81228441712933L36.97705802968961,128.15062337379806L42.89338731443995,106.41206671884883L48.80971659919028,134.45787280582755L55.46558704453441,64.16436715734262L61.38191632928475,106.74752128480142L67.29824561403508,106.11979228224163L73.95411605937922,75.91027020008866L79.87044534412955,69.1701981312042L85.7867746288799,71.24000727477977L92.44264507422403,96.45901853408728L98.35897435897436,82.41770293872857L104.2753036437247,136.33765533550337L110.93117408906882,62.84649372215742L116.84750337381917,119.60362460451438L122.7638326585695,128.2561054506089L129.41970310391363,53.630061094770106L135.33603238866397,77.18172925182508L141.2523616734143,128.60069536587113L147.90823211875843,64.88350639429851L153.82456140350877,41.1890771262935L159.7408906882591,33.54347064975725L166.39676113360323,52.55918253874452L172.3130904183536,35.68431990100748L178.22941970310393,37.045203241637914L184.88529014844806,120.6776806733433L190.8016194331984,36.21110613076119L196.71794871794873,94.57486692430685L203.37381916329284,113.06322517053981L209.29014844804317,66.34436790563402L215.2064777327935,89.12917739238296L221.86234817813764,80.98515533612282L227.77867746288797,66.38385985047552L233.69500674763833,46.0104421336612L240.35087719298244,18.921351106988084L246.2672064777328,8.463929505996365L252.18353576248313,74.07207904335655L258.83940620782727,27.296480478391103L264.7557354925776,63.908009963673166L270.67206477732793,19.81638837412885L277.32793522267207,20.176809112107684L283.2442645074224,52.612178913000236L289.16059379217273,19.81003334852217L295.81646423751687,83.36789274952731L301.7327935222672,93.51959222579767L307.64912280701753,71.47151177902312L314.30499325236167,74.65407455806827L320.221322537112,50.600870049786145L326.13765182186233,62.93557756325106L332.79352226720647,14.893342957054259L338.7098515519568,88.48289398470365L344.6261808367072,78.11132197070216L351.2820512820513,115.02397753540075L357.19838056680163,30.446984422902577L363.114709851552,45.722082846758106L369.7705802968961,71.4358215012856L375.68690958164643,59.098844335818306L381.6032388663968,100.34920206617622L388.25910931174093,0L394.17543859649123,56.79781439449972L400.0917678812416,64.4923886129874L406.7476383265857,63.154712464081406L412.66396761133603,63.29560111212949L418.58029689608634,71.83726619920755L425.2361673414305,3.1880099438508864L431.15249662618083,71.9422376043179L437.06882591093114,48.47505724305174L443.7246963562753,47.689133495925645L449.64102564102564,14.28433858351415L455.55735492577594,33.98724435752371L462.2132253711201,40.870815174258965L468.12955465587044,84.87085630550705L474.04588394062074,35.46745465217954L480.7017543859649,20.20949210094204L486.6180836707153,56.50894443589609L492.5344129554656,80.56118434207718L499.19028340080973,61.52419446556756L505.1066126855601,19.997733569119454L511.0229419703104,93.07735053313284L517.6788124156545,17.69301544329698L523.5951417004048,86.04398268424012L529.5114709851553,20.532577063481625L536.1673414304994,31.21912003411415L542.0836707152497,85.14139882419143L548,41.776179358010594" class="rv-xy-plot__series rv-xy-plot__series--line" transform="translate(32,5)" style="opacity: 1; stroke-width: 1.5; stroke: rgb(160, 199, 92);"/><path d="M0,229L5.916329284750337,159.42211562786727L11.832658569500675,193.70895404970588L18.488529014844804,161.20804804724443L24.40485829959514,131.10667488300513L30.32118758434548,108.1010282564241L36.97705802968961,158.4406046194356L42.89338731443995,113.82270747183811L48.80971659919028,73.18969508612909L55.46558704453441,77.72769404099894L61.38191632928475,100.33921559736572L67.29824561403508,144.79908822429712L73.95411605937922,102.01047384932237L79.87044534412955,88.00921761180577L85.7867746288799,104.4586339816956L92.44264507422403,82.05296986194519L98.35897435897436,84.34372962795298L104.2753036437247,67.56600809591808L110.93117408906882,61.38472435002097L116.84750337381917,74.05936899214319L122.7638326585695,98.89373097834638L129.41970310391363,97.3884410290642L135.33603238866397,71.48274655643493L141.2523616734143,41.14691834034919L147.90823211875843,105.17436874064789L153.82456140350877,85.1148438957635L159.7408906882591,72.65842629367067L166.39676113360323,100.30942641483439L172.3130904183536,89.50020875347292L178.22941970310393,58.22922717110425L184.88529014844806,52.50402999508656L190.8016194331984,82.09620673259063L196.71794871794873,73.27560141441937L203.37381916329284,26.625798311686147L209.29014844804317,99.51930381150393L215.2064777327935,84.9977298524404L221.86234817813764,75.51535075167357L227.77867746288797,90.7401196423762L233.69500674763833,75.17490295131572L240.35087719298244,74.28440498817973L246.2672064777328,60.69100521549181L252.18353576248313,52.427656205206276L258.83940620782727,41.98476037702983L264.7557354925776,74.82446868214738L270.67206477732793,56.513880929001274L277.32793522267207,64.12430779950054L283.2442645074224,58.35939171344106L289.16059379217273,94.94243706609319L295.81646423751687,27.002674026682286L301.7327935222672,45.46118634908389L307.64912280701753,42.65481838943414L314.30499325236167,53.15859763257457L320.221322537112,96.2678003528863L326.13765182186233,72.51424665021914L332.79352226720647,59.630226610876825L338.7098515519568,45.34719307726405L344.6261808367072,84.05763999305228L351.2820512820513,79.06077414460013L357.19838056680163,76.88065991370863L363.114709851552,69.09529961512548L369.7705802968961,90.67594523200873L375.68690958164643,86.34828627645996L381.6032388663968,84.21651563321929L388.25910931174093,87.68147986266128L394.17543859649123,24.099732374331026L400.0917678812416,45.03103055333174L406.7476383265857,47.13584907904409L412.66396761133603,59.24858462667569L418.58029689608634,32.02569761446195L425.2361673414305,99.91013788631471L431.15249662618083,49.31403410573357L437.06882591093114,83.0654616202094L443.7246963562753,82.2243285881253L449.64102564102564,74.36770121666727L455.55735492577594,18.624764331576344L462.2132253711201,35.492647789406035L468.12955465587044,92.74439258438285L474.04588394062074,57.15749749557777L480.7017543859649,72.92238682154812L486.6180836707153,31.088728526577096L492.5344129554656,55.72920549047651L499.19028340080973,102.70822161615575L505.1066126855601,43.82193019036085L511.0229419703104,74.29881727839486L517.6788124156545,47.75035735869001L523.5951417004048,42.70458050958642L529.5114709851553,71.24369545928366L536.1673414304994,67.2885998799265L542.0836707152497,66.32422474411283L548,38.88725280677407" class="rv-xy-plot__series rv-xy-plot__series--line" transform="translate(32,5)" style="opacity: 1; stroke-width: 1.5; stroke: rgb(71, 154, 95);"/><g class="rv-xy-plot__series rv-xy-plot__series--mark" transform="translate(32,5)"><circle r="2" cx="548" cy="38.88725280677407" style="opacity: 1; stroke: rgb(71, 154, 95); fill: rgb(71, 154, 95); stroke-width: 1;"/></g><g class="rv-xy-plot__series rv-xy-plot__series--mark" transform="translate(32,5)"><circle r="2" cx="548" cy="41.776179358010594" style="opacity: 1; stroke: rgb(160, 199, 92); fill: rgb(160, 199, 92); stroke-width: 1;"/></g><defs class="rv-gradient-defs"><linearGradient id="leftFadeGradient" x1="0" x2="1" y1="0" y2="0"><stop offset="0%" stop-color="white" stop-opacity="1"/><stop offset="60%" stop-color="white" stop-opacity="1"/><stop offset="100%" stop-color="white" stop-opacity="0"/></linearGradient><linearGradient id="rightFadeGradient" x1="1" x2="0" y1="0" y2="0"><stop offset="0%" stop-color="white" stop-opacity="1"/><stop offset="100%" stop-color="white" stop-opacity="0"/></linearGradient><linearGradient id="bottomFadeGradient" x1="0" x2="0" y1="1" y2="0"><stop offset="0%" stop-color="white" stop-opacity="1"/><stop offset="40%" stop-color="white" stop-opacity="1"/><stop offset="100%" stop-color="white" stop-opacity="0"/></linearGradient><linearGradient id="topFadeGradient" x1="0" x2="0" y1="0" y2="1"><stop offset="0%" stop-color="white" stop-opacity="1"/><stop offset="100%" stop-color="white" stop-opacity="0"/></linearGradient></defs><g class="rv-xy-plot__borders plot-border"><rect class="rv-xy-plot__borders-bottom plot-border-bottom" x="0" y="234" width="600" height="30" style="fill: url(&quot;#bottomFadeGradient&quot;); opacity: 1;"/><rect class="rv-xy-plot__borders-left plot-border-left" x="0" y="0" width="32" height="264" style="fill: url(&quot;#leftFadeGradient&quot;); opacity: 1;"/><rect class="rv-xy-plot__borders-right plot-border-right" x="580" y="0" width="20" height="264" style="fill: url(&quot;#rightFadeGradient&quot;); opacity: 1;"/><rect class="rv-xy-plot__borders-top plot-border-top" x="0" y="0" width="600" height="5" style="fill: url(&quot;#topFadeGradient&quot;); opacity: 1;"/></g><g transform="translate(32,874.9149997980605)" class="rv-xy-plot__axis rv-xy-plot__axis--horizontal"><line x1="0" x2="548" y1="0" y2="0" class="rv-xy-plot__axis__line"/><g transform="translate(0, 0)" class="rv-xy-plot__axis__ticks"/></g><g transform="translate(32,234)" class="rv-xy-plot__axis rv-xy-plot__axis--horizontal" style="font-family: &quot;Source Sans Pro&quot;; fill: rgb(107, 107, 118); font-size: 11px;"><line x1="0" x2="548" y1="0" y2="0" class="rv-xy-plot__axis__line" style="font-family: &quot;Source Sans Pro&quot;; fill: rgb(107, 107, 118); font-size: 11px; stroke-width: 0;"/><g transform="translate(0, 0)" class="rv-xy-plot__axis__ticks"><g transform="translate(68.03778677462888, 0)" class="rv-xy-plot__axis__tick" style="font-family: &quot;Source Sans Pro&quot;; fill: rgb(107, 107, 118); font-size: 11px;"><line x1="0" x2="0" y1="-6" y2="6" class="rv-xy-plot__axis__tick__line" style="font-family: &quot;Source Sans Pro&quot;; fill: rgb(107, 107, 118); font-size: 11px; stroke-width: 0;"/><text text-anchor="middle" dy="0.72em" transform="translate(0, 14)" class="rv-xy-plot__axis__tick__text" style="font-family: sans-serif; fill: rgb(107, 107, 118); font-size: 11px;">200</text></g><g transform="translate(141.9919028340081, 0)" class="rv-xy-plot__axis__tick" style="font-family: &quot;Source Sans Pro&quot;; fill: rgb(107, 107, 118); font-size: 11px;"><line x1="0" x2="0" y1="-6" y2="6" class="rv-xy-plot__axis__tick__line" style="font-family: &quot;Source Sans Pro&quot;; fill: rgb(107, 107, 118); font-size: 11px; stroke-width: 0;"/><text text-anchor="middle" dy="0.72em" transform="translate(0, 14)" class="rv-xy-plot__axis__tick__text" style="font-family: sans-serif; fill: rgb(107, 107, 118); font-size: 11px;">400</text></g><g transform="translate(215.9460188933873, 0)" class="rv-xy-plot__axis__tick" style="font-family: &quot;Source Sans Pro&quot;; fill: rgb(107, 107, 118); font-size: 11px;"><line x1="0" x2="0" y1="-6" y2="6" class="rv-xy-plot__axis__tick__line" style="font-family: &quot;Source Sans Pro&quot;; fill: rgb(107, 107, 118); font-size: 11px; stroke-width: 0;"/><text text-anchor="middle" dy="0.72em" transform="translate(0, 14)" class="rv-xy-plot__axis__tick__text" style="font-family: sans-serif; fill: rgb(107, 107, 118); font-size: 11px;">600</text></g><g transform="translate(289.9001349527665, 0)" class="rv-xy-plot__axis__tick" style="font-family: &quot;Source Sans Pro&quot;; fill: rgb(107, 107, 118); font-size: 11px;"><line x1="0" x2="0" y1="-6" y2="6" class="rv-xy-plot__axis__tick__line" style="font-family: &quot;Source Sans Pro&quot;; fill: rgb(107, 107, 118); font-size: 11px; stroke-width: 0;"/><text text-anchor="middle" dy="0.72em" transform="translate(0, 14)" class="rv-xy-plot__axis__tick__text" style="font-family: sans-serif; fill: rgb(107, 107, 118); font-size: 11px;">800</text></g><g transform="translate(363.85425101214577, 0)" class="rv-xy-plot__axis__tick" style="font-family: &quot;Source Sans Pro&quot;; fill: rgb(107, 107, 118); font-size: 11px;"><line x1="0" x2="0" y1="-6" y2="6" class="rv-xy-plot__axis__tick__line" style="font-family: &quot;Source Sans Pro&quot;; fill: rgb(107, 107, 118); font-size: 11px; stroke-width: 0;"/><text text-anchor="middle" dy="0.72em" transform="translate(0, 14)" class="rv-xy-plot__axis__tick__text" style="font-family: sans-serif; fill: rgb(107, 107, 118); font-size: 11px;">1k</text></g><g transform="translate(437.80836707152497, 0)" class="rv-xy-plot__axis__tick" style="font-family: &quot;Source Sans Pro&quot;; fill: rgb(107, 107, 118); font-size: 11px;"><line x1="0" x2="0" y1="-6" y2="6" class="rv-xy-plot__axis__tick__line" style="font-family: &quot;Source Sans Pro&quot;; fill: rgb(107, 107, 118); font-size: 11px; stroke-width: 0;"/><text text-anchor="middle" dy="0.72em" transform="translate(0, 14)" class="rv-xy-plot__axis__tick__text" style="font-family: sans-serif; fill: rgb(107, 107, 118); font-size: 11px;">1.2k</text></g><g transform="translate(511.76248313090423, 0)" class="rv-xy-plot__axis__tick" style="font-family: &quot;Source Sans Pro&quot;; fill: rgb(107, 107, 118); font-size: 11px;"><line x1="0" x2="0" y1="-6" y2="6" class="rv-xy-plot__axis__tick__line" style="font-family: &quot;Source Sans Pro&quot;; fill: rgb(107, 107, 118); font-size: 11px; stroke-width: 0;"/><text text-anchor="middle" dy="0.72em" transform="translate(0, 14)" class="rv-xy-plot__axis__tick__text" style="font-family: sans-serif; fill: rgb(107, 107, 118); font-size: 11px;">1.4k</text></g></g><g transform="translate(0, 0)" class="rv-xy-plot__axis__title"><g transform="translate(542, -6) rotate(0)" style="text-anchor: end; font-family: &quot;Source Sans Pro&quot;; fill: rgb(107, 107, 118); font-size: 11px;"><text style="font-family: sans-serif; fill: rgb(107, 107, 118); font-size: 11px;">Step</text></g></g></g><g transform="translate(32,234)" class="rv-xy-plot__axis rv-xy-plot__axis--horizontal"><line x1="0" x2="0" y1="0" y2="0" class="rv-xy-plot__axis__line"/><g transform="translate(0, 0)" class="rv-xy-plot__axis__ticks"><g transform="translate(68.03778677462888, 0)" class="rv-xy-plot__axis__tick"><line x1="0" x2="0" y1="-6" y2="6" class="rv-xy-plot__axis__tick__line"/><text text-anchor="middle" dy="0.72em" transform="translate(0, 14)" class="rv-xy-plot__axis__tick__text" style="font-family: sans-serif;"/></g><g transform="translate(141.9919028340081, 0)" class="rv-xy-plot__axis__tick"><line x1="0" x2="0" y1="-6" y2="6" class="rv-xy-plot__axis__tick__line"/><text text-anchor="middle" dy="0.72em" transform="translate(0, 14)" class="rv-xy-plot__axis__tick__text" style="font-family: sans-serif;"/></g><g transform="translate(215.9460188933873, 0)" class="rv-xy-plot__axis__tick"><line x1="0" x2="0" y1="-6" y2="6" class="rv-xy-plot__axis__tick__line"/><text text-anchor="middle" dy="0.72em" transform="translate(0, 14)" class="rv-xy-plot__axis__tick__text" style="font-family: sans-serif;"/></g><g transform="translate(289.9001349527665, 0)" class="rv-xy-plot__axis__tick"><line x1="0" x2="0" y1="-6" y2="6" class="rv-xy-plot__axis__tick__line"/><text text-anchor="middle" dy="0.72em" transform="translate(0, 14)" class="rv-xy-plot__axis__tick__text" style="font-family: sans-serif;"/></g><g transform="translate(363.85425101214577, 0)" class="rv-xy-plot__axis__tick"><line x1="0" x2="0" y1="-6" y2="6" class="rv-xy-plot__axis__tick__line"/><text text-anchor="middle" dy="0.72em" transform="translate(0, 14)" class="rv-xy-plot__axis__tick__text" style="font-family: sans-serif;"/></g><g transform="translate(437.80836707152497, 0)" class="rv-xy-plot__axis__tick"><line x1="0" x2="0" y1="-6" y2="6" class="rv-xy-plot__axis__tick__line"/><text text-anchor="middle" dy="0.72em" transform="translate(0, 14)" class="rv-xy-plot__axis__tick__text" style="font-family: sans-serif;"/></g><g transform="translate(511.76248313090423, 0)" class="rv-xy-plot__axis__tick"><line x1="0" x2="0" y1="-6" y2="6" class="rv-xy-plot__axis__tick__line"/><text text-anchor="middle" dy="0.72em" transform="translate(0, 14)" class="rv-xy-plot__axis__tick__text" style="font-family: sans-serif;"/></g></g></g><g transform="translate(0,5)" class="rv-xy-plot__axis rv-xy-plot__axis--vertical" style="font-family: &quot;Source Sans Pro&quot;; fill: rgb(107, 107, 118); font-size: 11px;"><line x1="32" x2="32" y1="0" y2="229" class="rv-xy-plot__axis__line" style="font-family: &quot;Source Sans Pro&quot;; fill: rgb(107, 107, 118); font-size: 11px; stroke: none;"/><g transform="translate(32, 0)" class="rv-xy-plot__axis__ticks"><g transform="translate(0, 215.44177983334907)" class="rv-xy-plot__axis__tick" style="font-family: &quot;Source Sans Pro&quot;; fill: rgb(107, 107, 118); font-size: 11px;"><line y1="0" y2="0" x1="6" x2="-6" class="rv-xy-plot__axis__tick__line" style="font-family: &quot;Source Sans Pro&quot;; fill: rgb(107, 107, 118); font-size: 11px; stroke: none;"/><text text-anchor="end" dy="0.32em" transform="translate(-14, 0)" class="rv-xy-plot__axis__tick__text" style="font-family: sans-serif; fill: rgb(107, 107, 118); font-size: 11px;">22</text></g><g transform="translate(0, 155.94421438201167)" class="rv-xy-plot__axis__tick" style="font-family: &quot;Source Sans Pro&quot;; fill: rgb(107, 107, 118); font-size: 11px;"><line y1="0" y2="0" x1="6" x2="-6" class="rv-xy-plot__axis__tick__line" style="font-family: &quot;Source Sans Pro&quot;; fill: rgb(107, 107, 118); font-size: 11px; stroke: none;"/><text text-anchor="end" dy="0.32em" transform="translate(-14, 0)" class="rv-xy-plot__axis__tick__text" style="font-family: sans-serif; fill: rgb(107, 107, 118); font-size: 11px;">24</text></g><g transform="translate(0, 96.44664893067429)" class="rv-xy-plot__axis__tick" style="font-family: &quot;Source Sans Pro&quot;; fill: rgb(107, 107, 118); font-size: 11px;"><line y1="0" y2="0" x1="6" x2="-6" class="rv-xy-plot__axis__tick__line" style="font-family: &quot;Source Sans Pro&quot;; fill: rgb(107, 107, 118); font-size: 11px; stroke: none;"/><text text-anchor="end" dy="0.32em" transform="translate(-14, 0)" class="rv-xy-plot__axis__tick__text" style="font-family: sans-serif; fill: rgb(107, 107, 118); font-size: 11px;">26</text></g><g transform="translate(0, 36.94908347933686)" class="rv-xy-plot__axis__tick" style="font-family: &quot;Source Sans Pro&quot;; fill: rgb(107, 107, 118); font-size: 11px;"><line y1="0" y2="0" x1="6" x2="-6" class="rv-xy-plot__axis__tick__line" style="font-family: &quot;Source Sans Pro&quot;; fill: rgb(107, 107, 118); font-size: 11px; stroke: none;"/><text text-anchor="end" dy="0.32em" transform="translate(-14, 0)" class="rv-xy-plot__axis__tick__text" style="font-family: sans-serif; fill: rgb(107, 107, 118); font-size: 11px;">28</text></g></g></g></svg></g><style xmlns="http://www.w3.org/1999/xhtml">/*&lt;![CDATA[*/<br />text { font-size: 10px; fill: black }<br />.react-vis-magic-css-import-rule{display:inherit}.rv-treemap{font-size:12px;position:relative}.rv-treemap__leaf{overflow:hidden;position:absolute}.rv-treemap__leaf--circle{align-items:center;border-radius:100%;display:flex;justify-content:center}.rv-treemap__leaf__content{overflow:hidden;padding:10px;text-overflow:ellipsis}.rv-xy-plot{color:#c3c3c3;position:relative}.rv-xy-plot canvas{pointer-events:none}.rv-xy-plot .rv-xy-canvas{pointer-events:none;position:absolute}.rv-xy-plot__inner{display:block}.rv-xy-plot__axis__line{fill:none;stroke-width:2px;stroke:#e6e6e9}.rv-xy-plot__axis__tick__line{stroke:#e6e6e9}.rv-xy-plot__axis__tick__text{fill:#6b6b76;font-size:11px}.rv-xy-plot__axis__title text{fill:#6b6b76;font-size:11px}.rv-xy-plot__grid-lines__line{stroke:#e6e6e9}.rv-xy-plot__circular-grid-lines__line{fill-opacity:0;stroke:#e6e6e9}.rv-xy-plot__series,.rv-xy-plot__series path{pointer-events:all}.rv-xy-plot__series--line{fill:none;stroke:#000;stroke-width:2px}.rv-crosshair{position:absolute;font-size:11px;pointer-events:none}.rv-crosshair__line{background:#47d3d9;width:1px}.rv-crosshair__inner{position:absolute;text-align:left;top:0}.rv-crosshair__inner__content{border-radius:4px;background:#3a3a48;color:#fff;font-size:12px;padding:7px 10px;box-shadow:0 2px 4px rgba(0,0,0,0.5)}.rv-crosshair__inner--left{right:4px}.rv-crosshair__inner--right{left:4px}.rv-crosshair__title{font-weight:bold;white-space:nowrap}.rv-crosshair__item{white-space:nowrap}.rv-hint{position:absolute;pointer-events:none}.rv-hint__content{border-radius:4px;padding:7px 10px;font-size:12px;background:#3a3a48;box-shadow:0 2px 4px rgba(0,0,0,0.5);color:#fff;text-align:left;white-space:nowrap}.rv-discrete-color-legend{box-sizing:border-box;overflow-y:auto;font-size:12px}.rv-discrete-color-legend.horizontal{white-space:nowrap}.rv-discrete-color-legend-item{color:#3a3a48;border-radius:1px;padding:9px 10px}.rv-discrete-color-legend-item.horizontal{display:inline-block}.rv-discrete-color-legend-item.horizontal .rv-discrete-color-legend-item__title{margin-left:0;display:block}.rv-discrete-color-legend-item__color{display:inline-block;vertical-align:middle;overflow:visible}.rv-discrete-color-legend-item__color__path{stroke:#dcdcdc;stroke-width:2px}.rv-discrete-color-legend-item__title{margin-left:10px}.rv-discrete-color-legend-item.disabled{color:#b8b8b8}.rv-discrete-color-legend-item.clickable{cursor:pointer}.rv-discrete-color-legend-item.clickable:hover{background:#f9f9f9}.rv-search-wrapper{display:flex;flex-direction:column}.rv-search-wrapper__form{flex:0}.rv-search-wrapper__form__input{width:100%;color:#a6a6a5;border:1px solid #e5e5e4;padding:7px 10px;font-size:12px;box-sizing:border-box;border-radius:2px;margin:0 0 9px;outline:0}.rv-search-wrapper__contents{flex:1;overflow:auto}.rv-continuous-color-legend{font-size:12px}.rv-continuous-color-legend .rv-gradient{height:4px;border-radius:2px;margin-bottom:5px}.rv-continuous-size-legend{font-size:12px}.rv-continuous-size-legend .rv-bubbles{text-align:justify;overflow:hidden;margin-bottom:5px;width:100%}.rv-continuous-size-legend .rv-bubble{background:#d8d9dc;display:inline-block;vertical-align:bottom}.rv-continuous-size-legend .rv-spacer{display:inline-block;font-size:0;line-height:0;width:100%}.rv-legend-titles{height:16px;position:relative}.rv-legend-titles__left,.rv-legend-titles__right,.rv-legend-titles__center{position:absolute;white-space:nowrap;overflow:hidden}.rv-legend-titles__center{display:block;text-align:center;width:100%}.rv-legend-titles__right{right:0}.rv-radial-chart .rv-xy-plot__series--label{pointer-events:none}<br /><br />/*]]&gt;*/</style></svg>